<svg xmlns="http://www.w3.org/2000/svg" width="720" height="310" viewBox="0 0 720 310" role="img" aria-label="爱玩AI">
  <defs>
    <linearGradient id="ai-blue" x1="88" y1="90" x2="182" y2="215" gradientUnits="userSpaceOnUse">
      <stop offset="0" stop-color="#18E3FF"/>
      <stop offset="0.55" stop-color="#1286FF"/>
      <stop offset="1" stop-color="#1E5BFF"/>
    </linearGradient>
    <linearGradient id="ai-hot" x1="172" y1="90" x2="190" y2="205" gradientUnits="userSpaceOnUse">
      <stop offset="0" stop-color="#FFC400"/>
      <stop offset="0.45" stop-color="#FF8D17"/>
      <stop offset="1" stop-color="#FF2E73"/>
    </linearGradient>
    <linearGradient id="ai-text" x1="548" y1="88" x2="692" y2="171" gradientUnits="userSpaceOnUse">
      <stop offset="0" stop-color="#B9E600"/>
      <stop offset="0.38" stop-color="#94D800"/>
      <stop offset="0.7" stop-color="#FF9C00"/>
      <stop offset="1" stop-color="#FF2675"/>
    </linearGradient>
    <linearGradient id="ring" x1="55" y1="76" x2="226" y2="228" gradientUnits="userSpaceOnUse">
      <stop offset="0" stop-color="#00D8FF"/>
      <stop offset="0.35" stop-color="#19C6FF"/>
      <stop offset="0.62" stop-color="#36E444"/>
      <stop offset="0.78" stop-color="#FFD400"/>
      <stop offset="1" stop-color="#FF2E83"/>
    </linearGradient>
    <filter id="card-shadow" x="-18%" y="-18%" width="136%" height="140%">
      <feDropShadow dx="0" dy="16" stdDeviation="14" flood-color="#0A1B44" flood-opacity="0.2"/>
    </filter>
    <filter id="soft-shadow" x="-20%" y="-20%" width="140%" height="140%">
      <feDropShadow dx="0" dy="5" stdDeviation="5" flood-color="#0B3B7A" flood-opacity="0.2"/>
    </filter>
  </defs>

  <g filter="url(#card-shadow)">
    <rect x="24" y="28" width="238" height="238" rx="44" fill="#FFFFFF"/>
    <rect x="25.5" y="29.5" width="235" height="235" rx="42.5" fill="none" stroke="#E8EEF8" stroke-width="3"/>

    <path d="M62 220C85 190 114 177 149 184C181 190 207 177 235 144"
      fill="none" stroke="url(#ring)" stroke-width="11" stroke-linecap="round"/>
    <path d="M65 224C87 217 109 213 131 215C160 218 189 214 228 188"
      fill="none" stroke="#166CFF" stroke-width="7" stroke-linecap="round"/>
    <path d="M154 202C181 203 209 192 242 162"
      fill="none" stroke="#FFB000" stroke-width="7" stroke-linecap="round"/>
    <path d="M49 205C67 159 91 112 134 87C173 65 211 78 231 113"
      fill="none" stroke="#21D8FF" stroke-width="9" stroke-linecap="round" opacity="0.85"/>
    <path d="M51 208C84 231 138 232 188 220"
      fill="none" stroke="#0B64FF" stroke-width="8" stroke-linecap="round"/>

    <path d="M80 199L126 100C130 91 142 91 146 100L187 199"
      fill="none" stroke="url(#ai-blue)" stroke-width="22" stroke-linecap="round" stroke-linejoin="round"/>
    <path d="M191 101V199" stroke="url(#ai-hot)" stroke-width="22" stroke-linecap="round"/>
    <path d="M73 203L55 240L96 227" fill="none" stroke="#116CFF" stroke-width="8" stroke-linecap="round" stroke-linejoin="round"/>

    <circle cx="120" cy="173" r="4.8" fill="#111827"/>
    <circle cx="145" cy="173" r="4.8" fill="#111827"/>
    <path d="M124 186C132 193 142 193 151 185" fill="none" stroke="#111827" stroke-width="4" stroke-linecap="round"/>

    <path d="M205 69H235C249 69 259 78 259 91V98C259 111 249 120 235 120H225L211 136V120H205C191 120 181 111 181 98V91C181 78 191 69 205 69Z"
      fill="#68D700" stroke="#FFFFFF" stroke-width="5"/>
    <circle cx="204" cy="94" r="5.5" fill="#FFFFFF"/>
    <circle cx="219" cy="94" r="5.5" fill="#FFFFFF"/>
    <circle cx="234" cy="94" r="5.5" fill="#FFFFFF"/>

    <g fill="none" stroke-linecap="round" stroke-width="3">
      <path d="M64 80L88 58L119 51" stroke="#FFA700"/>
      <path d="M72 90L54 112L54 145" stroke="#00CFFF"/>
      <path d="M126 52L160 66L178 88" stroke="#77DB00"/>
      <path d="M45 159L64 138" stroke="#0B6DFF"/>
    </g>
    <circle cx="65" cy="80" r="11" fill="#FFA700" stroke="#FFFFFF" stroke-width="4"/>
    <circle cx="54" cy="113" r="8" fill="#FF8A00" stroke="#FFFFFF" stroke-width="3"/>
    <circle cx="125" cy="51" r="10" fill="#FF3474" stroke="#FFFFFF" stroke-width="4"/>
    <circle cx="164" cy="69" r="9" fill="#7DD900" stroke="#FFFFFF" stroke-width="3"/>
    <circle cx="47" cy="154" r="7" fill="#0A7CFF" stroke="#FFFFFF" stroke-width="3"/>
  </g>

  <g filter="url(#soft-shadow)">
    <text x="314" y="152"
      font-family="PingFang SC, Noto Sans SC, Microsoft YaHei, Heiti SC, Arial, sans-serif"
      font-size="92"
      font-weight="900"
      letter-spacing="-3"
      fill="#0969E8">爱玩</text>
    <text x="548" y="152"
      font-family="Arial Black, Inter, Arial, sans-serif"
      font-size="91"
      font-weight="900"
      letter-spacing="-2"
      fill="url(#ai-text)">AI</text>
    <text x="316" y="214"
      font-family="Inter, Arial, sans-serif"
      font-size="42"
      font-weight="900"
      letter-spacing="0"
      fill="#1C2433">AIwan</text>
    <text x="451" y="214"
      font-family="Inter, Arial, sans-serif"
      font-size="42"
      font-weight="900"
      letter-spacing="0"
      fill="#00AEEB">AI</text>
    <circle cx="507" cy="203" r="5" fill="#FF4B4B"/>
    <text x="519" y="214"
      font-family="Inter, Arial, sans-serif"
      font-size="42"
      font-weight="900"
      letter-spacing="0"
      fill="#1C2433">com</text>
    <circle cx="610" cy="203" r="5" fill="#00AEEB"/>
    <text x="622" y="214"
      font-family="Inter, Arial, sans-serif"
      font-size="42"
      font-weight="900"
      letter-spacing="0"
      fill="#1C2433">cn</text>
  </g>
</svg>
